<svg width="14" height="14" viewBox="0 0 14 14" fill="none" xmlns="http://www.w3.org/2000/svg">
<path d="M13.2883 11.9617C13.4644 12.1379 13.5634 12.3767 13.5634 12.6258C13.5634 12.8749 13.4644 13.1137 13.2883 13.2899C13.1122 13.466 12.8733 13.5649 12.6242 13.5649C12.3752 13.5649 12.1363 13.466 11.9602 13.2899L7.00003 8.32814L2.03831 13.2883C1.86219 13.4644 1.62332 13.5634 1.37425 13.5634C1.12517 13.5634 0.886304 13.4644 0.710183 13.2883C0.534063 13.1122 0.43512 12.8733 0.43512 12.6242C0.43512 12.3752 0.534063 12.1363 0.710183 11.9602L5.6719 7.00001L0.711746 2.0383C0.535625 1.86218 0.436682 1.62331 0.436682 1.37423C0.436682 1.12516 0.535625 0.886291 0.711746 0.710171C0.887866 0.534051 1.12674 0.435107 1.37581 0.435107C1.62488 0.435107 1.86375 0.534051 2.03987 0.710171L7.00003 5.67189L11.9617 0.70939C12.1379 0.533269 12.3767 0.434326 12.6258 0.434326C12.8749 0.434326 13.1137 0.533269 13.2899 0.70939C13.466 0.88551 13.5649 1.12438 13.5649 1.37345C13.5649 1.62252 13.466 1.86139 13.2899 2.03751L8.32815 7.00001L13.2883 11.9617Z" fill="white"/>
</svg>
